<svg xmlns="http://www.w3.org/2000/svg" width="1472" height="346"><g fill="#1e88e5"><path d="M1372.52 345.46H537.76c-1.36 0-2.43-.98-1.84-2.65l9.03-27.68 818.68 8.53 8.89 21.8zM683.6 174.34h-73.27c-2.17 0-4.17-.54-6-1.63-1.84-1.09-3.33-2.48-4.48-4.17-1.15-1.7-1.9-3.63-2.24-5.8s-.1-4.41.71-6.72l10.38-29.51h-.2c.68-2.17 1.9-4.31 3.66-6.42 1.77-2.1 3.73-3.96 5.91-5.59 2.17-1.63 4.44-2.92 6.82-3.87 2.37-.95 4.57-1.42 6.61-1.42h104.01c1.35 0 1.96.88 1.83 2.64l-9.16 26.26c-.14.95-.68 1.42-1.63 1.42h-90.17l-2.44 6.92h73.07a11.66 11.66 0 0 1 6.01 1.63c1.83 1.09 3.32 2.48 4.47 4.17 1.16 1.7 1.9 3.67 2.24 5.91.34 2.23.1 4.44-.71 6.61l-10.18 29.52h.21c-.68 2.3-1.9 4.47-3.67 6.51-1.76 2.03-3.73 3.86-5.9 5.49s-4.44 2.92-6.82 3.87c-2.37.95-4.58 1.43-6.61 1.43H582.04c-1.76 0-2.38-.89-1.83-2.65l8.95-26.26c.14-.95.75-1.42 1.84-1.42h90.16l2.44-6.92z"/><path fill-rule="evenodd" d="M859.66 109.21c2.04 0 3.97.54 5.8 1.62 1.84 1.09 3.33 2.48 4.48 4.18 1.16 1.69 1.9 3.66 2.24 5.9s.1 4.44-.71 6.61l-22.8 66.77h.21c-.68 2.3-1.9 4.47-3.67 6.51-1.76 2.03-3.76 3.86-6 5.49s-4.55 2.92-6.92 3.87c-2.38.95-4.58 1.43-6.62 1.43H735.1c-2.31 0-4.34-.51-6.11-1.53-1.76-1.02-3.22-2.41-4.37-4.17-1.16-1.77-1.9-3.74-2.24-5.91s-.17-4.41.51-6.71l23.2-66.76h-.2c.68-2.17 1.9-4.31 3.66-6.42 1.77-2.1 3.73-3.96 5.9-5.59s4.45-2.92 6.82-3.87c2.38-.95 4.58-1.42 6.62-1.42h90.77zm-24.42 30.32h-61.67l-14.25 41.73h61.67l14.25-41.73z"/></g><path d="M876.52 146.45h84.87l2.45-6.92h-83.45c-.68 0-1.23-.23-1.63-.71-.41-.47-.48-1.05-.21-1.73l8.96-26.46c.14-.95.75-1.42 1.83-1.42h98.51c2.17 0 4.18.54 6.01 1.62 1.83 1.09 3.32 2.48 4.47 4.18 1.16 1.69 1.91 3.66 2.24 5.9.34 2.24.11 4.44-.71 6.61l-10.17 29.72h.2c-.68 2.17-1.87 4.28-3.56 6.31-1.7 2.04-3.67 3.87-5.91 5.5-2.24 1.62-4.54 2.91-6.92 3.86-2.37.95-4.58 1.43-6.61 1.43h-5.29l6.71 17.3 6.52 17.3c.27.68.2 1.29-.21 1.83-.4.54-.95.82-1.63.82h-29.31c-1.08 0-1.69-.41-1.83-1.23l-15.46-36.02h-28.7a351.66 351.66 0 0 1-6.11 17.91c-2.17 5.83-4.21 11.8-6.11 17.91-.13.95-.74 1.43-1.83 1.43h-28.29c-.68 0-1.19-.28-1.53-.82s-.37-1.15-.1-1.83l21.17-61.27c.14-.81.68-1.22 1.63-1.22z" fill="#1d87e5"/><path d="M1010.45 137.09l9.15-26.46c.14-.95.68-1.42 1.63-1.42h117.04c1.76 0 2.37.88 1.83 2.64l-8.96 26.26c-.13.95-.74 1.42-1.83 1.42h-42.94l-24.63 70.63c-.14.95-.68 1.43-1.63 1.43h-28.29c-.68 0-1.19-.28-1.53-.82s-.37-1.15-.1-1.83l24.02-69.41h-41.93c-1.5 0-2.11-.81-1.83-2.44zm170.93-25.24l-33.79 98.31c-.13.95-.75 1.43-1.83 1.43h-28.5c-.68 0-1.18-.28-1.52-.82s-.38-1.15-.11-1.83l33.79-98.31c.14-.95.75-1.42 1.83-1.42h28.3c1.76 0 2.37.88 1.83 2.64zm31.34-2.64h-2.03c-2.31 0-4.65.4-7.03 1.22-2.37.81-4.58 1.9-6.61 3.25-2.04 1.36-3.77 2.82-5.19 4.38-1.43 1.56-2.41 3.16-2.95 4.78l-29.92 86.1c-.55 1.76.07 2.65 1.83 2.65h28.09c1.08 0 1.69-.48 1.83-1.43l19.95-58.01 20.04 25.95c5.77 7.26 10.76 13.3 14.96 18.12 4.21 4.82 7.74 8.44 10.59 10.89 2.85 2.44 5.09 3.86 6.72 4.27.27.27.5.38.71.31.2-.07.57-.1 1.12-.1h2.03c2.31 0 4.68-.41 7.13-1.23 2.44-.81 4.68-1.86 6.71-3.15 2.04-1.29 3.8-2.75 5.29-4.38 1.5-1.63 2.51-3.25 3.06-4.88h-.2l43.13-127.75c.23-.69.24-1.29-.1-1.83s-.85-.82-1.53-.82h-28.29c-1.08 0-1.53.52-1.83 1.43l-33.57 99.46c-7.46-10.32-14.01-19.07-19.64-26.26s-10.55-13.13-14.76-17.81c-4.2-4.68-7.73-8.18-10.58-10.48-2.85-2.31-5.23-3.73-7.13-4.28-.54-.27-1.15-.4-1.83-.4zm191.53 65.13h-44.37c-.68 0-1.22-.24-1.63-.71-.41-.48-.47-1.06-.2-1.73l8.34-24.23c.14-.81.75-1.22 1.83-1.22h59.44a11.6 11.6 0 0 1 6 1.63c1.83 1.09 3.29 2.48 4.38 4.17 1.08 1.7 1.79 3.67 2.13 5.91a14.53 14.53 0 0 1-.51 6.61l-10.17 29.52h.2c-.68 2.3-1.9 4.47-3.66 6.51a38.02 38.02 0 0 1-5.91 5.49c-2.17 1.63-4.44 2.92-6.81 3.87-2.38.95-4.58 1.43-6.62 1.43h-90.37a11.6 11.6 0 0 1-6-1.63c-1.84-1.09-3.33-2.48-4.48-4.18-1.15-1.69-1.9-3.63-2.24-5.8s-.1-4.41.71-6.71l23-66.76h-.2c.68-2.17 1.9-4.31 3.66-6.42a33.93 33.93 0 0 1 6.01-5.59c2.23-1.63 4.54-2.92 6.92-3.87 2.37-.95 4.58-1.42 6.61-1.42h105.84c1.36 0 1.97.88 1.83 2.64l-9.16 26.26c-.13.95-.67 1.42-1.62 1.42h-92.21l-14.45 41.73h61.06l2.65-6.92z" fill="#1e88e5"/><path d="M1313.54 67.55h156.08c1.36 0 2.41.98 1.83 2.65l-9.15 26.26c-.14.93-.67 1.41-1.59 1.42h-156.14c.92-.01 1.27-.53 1.58-1.42l9.16-26.26c.57-1.64-.46-2.62-1.77-2.65z" fill="#1d87e5"/><g fill="#f6f6f6"><path d="M602.01 273.83l39.22-47.4c.1-.4.51-.6 1.21-.6h25.6c.7 0 1.21.25 1.51.75.3.51.2 1.01-.3 1.52l-51.34 62.84c-6.16 7.37-12.62 11.06-19.38 11.06h-7.42c-3.64 0-6.46-1.06-8.48-3.18s-3.33-4.95-3.94-8.48l-8.33-62.85c-.2-1.11.3-1.66 1.52-1.66h21.8c.81 0 1.31.45 1.52 1.36l6.81 46.64zm97.81-46.04l-25.13 73.15c-.1.7-.56 1.06-1.37 1.06h-21.2c-.5 0-.88-.2-1.13-.61-.26-.4-.28-.86-.08-1.36l25.14-73.14c.1-.71.55-1.06 1.36-1.06h21.05c1.31 0 1.77.65 1.36 1.96zm59.81 46.5h-54.52a8.63 8.63 0 0 1-4.47-1.22 10.31 10.31 0 0 1-3.33-3.1c-.86-1.26-1.41-2.7-1.66-4.32-.25-1.61-.08-3.28.53-4.99l7.72-21.96h-.15c.51-1.62 1.41-3.21 2.73-4.77 1.31-1.57 2.77-2.96 4.39-4.17 1.61-1.21 3.3-2.17 5.07-2.87 1.77-.71 3.41-1.06 4.92-1.06h77.39c1 0 1.46.65 1.36 1.96l-6.82 19.54c-.1.71-.5 1.06-1.21 1.06H724.5l-1.82 5.15h54.36a8.57 8.57 0 0 1 4.47 1.21c1.36.81 2.48 1.84 3.33 3.1.86 1.27 1.42 2.73 1.67 4.4.25 1.66.08 3.3-.53 4.92l-7.57 21.96h.15c-.51 1.71-1.42 3.33-2.73 4.84a27.47 27.47 0 0 1-4.39 4.09 22.15 22.15 0 0 1-5.07 2.88c-1.77.7-3.41 1.06-4.92 1.06h-77.39c-1.31 0-1.76-.66-1.36-1.97l6.66-19.54c.1-.7.56-1.06 1.37-1.06h67.08l1.82-5.14zm55.71 5.14h45.59l18.32-52.54c.1-.71.5-1.06 1.21-1.06h21.05c1.01 0 1.46.65 1.36 1.96l-21.2 61.34h.16c-.51 1.71-1.42 3.33-2.73 4.84-1.31 1.52-2.78 2.88-4.39 4.09-1.62 1.21-3.31 2.17-5.08 2.88-1.76.7-3.4 1.06-4.92 1.06h-67.24c-1.61 0-3.1-.41-4.46-1.21-1.36-.81-2.48-1.85-3.33-3.11-.86-1.26-1.42-2.7-1.67-4.31-.25-1.62-.07-3.28.53-5l21.2-61.48c.1-.71.56-1.06 1.36-1.06H832c1.32 0 1.77.65 1.36 1.96l-18.02 51.64z"/><path fill-rule="evenodd" d="M920.43 289.73l-9.85 11.66c-.1.41-.45.61-1.06.61h-24.83c-.71 0-1.19-.25-1.44-.76s-.18-1.01.23-1.51l51.64-62.85c6.05-7.37 12.67-11.05 19.83-11.05h9.09c3.84 0 6.56.98 8.18 2.95 1.61 1.97 2.67 4.92 3.18 8.86l8.48 62.69c.2 1.11-.3 1.67-1.52 1.67h-21.65c-.81 0-1.26-.46-1.36-1.36l-1.82-10.91h-37.1zm34.68-20.29l-2.73-17.11-7.19 8.33-7.65 8.78h17.57z"/><path d="M1037.32 225.83h-20.9c-.8 0-1.26.35-1.36 1.06l-21.2 61.48c-.61 1.72-.78 3.38-.53 5 .25 1.61.81 3.05 1.66 4.31.86 1.26 1.97 2.3 3.34 3.11 1.36.8 2.85 1.21 4.46 1.21h69.97c.8 0 1.26-.36 1.36-1.06l6.66-19.69c.2-.5.15-.93-.15-1.29-.3-.35-.71-.53-1.21-.53h-58.61l17.87-51.64c.41-1.31-.05-1.96-1.36-1.96zm95.09 1.96l-25.14 73.15c-.1.7-.55 1.06-1.36 1.06h-21.2c-.51 0-.88-.2-1.14-.61-.25-.4-.27-.86-.07-1.36l25.13-73.14c.11-.71.56-1.06 1.37-1.06h21.05c1.31 0 1.76.65 1.36 1.96zm34.21 51.64h39.22c.51 0 .91.18 1.21.53.31.36.36.79.16 1.29l-6.82 19.69c-.1.7-.5 1.06-1.21 1.06h-82.68c-.51 0-.91-.2-1.21-.61-.31-.4-.36-.86-.16-1.36l2.43-6.97c.5-1.31 1.41-2.9 2.72-4.77 1.32-1.86 2.83-3.35 4.55-4.46l-.16.15 49.68-35.59h-39.23c-.5 0-.9-.18-1.21-.53-.3-.35-.35-.78-.15-1.29l6.66-19.68c.1-.71.56-1.06 1.37-1.06h82.53c1.31 0 1.77.65 1.36 1.96l-2.27 6.52c-.51 1.61-1.49 3.45-2.95 5.52-1.47 2.07-3.16 3.61-5.08 4.62v-.15l-48.76 35.13zM1223.4 302c-1.72 0-3.23-.41-4.55-1.21a10.72 10.72 0 0 1-3.25-3.11c-.86-1.26-1.42-2.7-1.67-4.31-.25-1.62-.12-3.28.38-5l17.11-49.67h-.15c.51-1.62 1.42-3.21 2.73-4.77a24.85 24.85 0 0 1 4.46-4.17c1.67-1.21 3.39-2.17 5.15-2.87 1.77-.71 3.41-1.06 4.93-1.06h70.41c1.31 0 1.77.65 1.36 1.96l-6.66 19.54c-.1.71-.55 1.06-1.36 1.06h-60.12l-1.82 5.15h59.06c.51 0 .91.18 1.21.53.31.35.36.78.16 1.29l-6.37 18.02c-.2.6-.6.91-1.21.91h-60.12l-1.81 5.14h59.21c.5 0 .91.18 1.21.53.3.36.35.79.15 1.29l-6.66 19.69c-.11.7-.56 1.06-1.37 1.06h-70.41zm98.57-49.07h63.75l1.82-5.15h-62.85c-.5 0-.91-.17-1.21-.53-.3-.35-.35-.78-.15-1.28l6.81-19.99c.11-.61.56-.91 1.37-.91h74.2a8.57 8.57 0 0 1 4.47 1.21c1.36.81 2.47 1.84 3.33 3.11.86 1.26 1.41 2.72 1.67 4.39.25 1.66.07 3.35-.53 5.07l-7.58 22.26h.16c-.51 1.72-1.42 3.33-2.73 4.85a26.86 26.86 0 0 1-4.47 4.09c-1.66 1.21-3.4 2.17-5.22 2.87-1.82.71-3.48 1.06-5 1.06h-3.94l27.02 69.51c.47 1.29-.05 1.97-1.36 1.97h-21.96c-.71 0-1.16-.25-1.36-.76l-28.84-70.72h-21.5l-9.39 26.96c-.1.7-.51 1.06-1.21 1.06h-21.2c-1.32 0-1.77-.66-1.37-1.97l15.9-46.04c.11-.7.56-1.06 1.37-1.06zm-41.41-155.05H617.48c-1.36 0-2.42-.97-1.83-2.64l9.16-26.26c.31-.89.66-1.41 1.58-1.43h664.41l-10.24 30.33zm-756.28 47.79h-46.46l-62.3 199.79h46.45l62.31-199.79zM424.1 87.3h-46.46l-80.51 258.16h46.46L424.1 87.3z"/></g><path d="M608.25 71.29h-46.46l-87.08 274.17h46.46l87.08-274.17zM510.34.54h-46.46L356.32 345.46h46.46L510.34.54zM311.5 71.29h-46.46l-87.08 274.17h46.46L311.5 71.29zm-83.97 74.38h-46.46l-62.3 199.79h46.46l62.3-199.79zM213.6.54h-46.46L59.57 345.46h46.46L213.6.54zM127.35 87.3H80.89L.38 345.46h46.46L127.35 87.3zm193.49 141.3h-46.46l-36.44 116.86h46.46l36.44-116.86z" fill="#1e88e5"/></svg>