<svg xmlns="http://www.w3.org/2000/svg" viewBox="0 0 1472 346" width="1472" height="346">
	<style>
		tspan { white-space:pre }
		.shp0 { fill: #1e88e5 } 
		.shp1 { fill: #909393 } 
	</style>
	<g id="Layer 1">
		<path id="&lt;Path&gt;" class="shp0" d="M1372.52 345.46L537.76 345.46C536.4 345.46 535.33 344.48 535.92 342.81L544.95 315.13L1363.63 323.66L1372.52 345.46Z" />
		<g id="&lt;Group&gt;">
			<path id="&lt;Path&gt;" class="shp0" d="M683.6 174.34L610.33 174.34C608.16 174.34 606.16 173.8 604.33 172.71C602.49 171.62 601 170.23 599.85 168.54C598.7 166.84 597.95 164.91 597.61 162.74C597.27 160.57 597.51 158.33 598.32 156.02L608.7 126.51L608.5 126.51C609.18 124.34 610.4 122.2 612.16 120.09C613.93 117.99 615.89 116.13 618.07 114.5C620.24 112.87 622.51 111.58 624.89 110.63C627.26 109.68 629.46 109.21 631.5 109.21L735.51 109.21C736.86 109.21 737.47 110.09 737.34 111.85L728.18 138.11C728.04 139.06 727.5 139.53 726.55 139.53L636.38 139.53L633.94 146.45L707.01 146.45C709.18 146.45 711.18 147 713.02 148.08C714.85 149.17 716.34 150.56 717.49 152.25C718.65 153.95 719.39 155.92 719.73 158.16C720.07 160.39 719.83 162.6 719.02 164.77L708.84 194.29L709.05 194.29C708.37 196.59 707.15 198.76 705.38 200.8C703.62 202.83 701.65 204.66 699.48 206.29C697.31 207.92 695.04 209.21 692.66 210.16C690.29 211.11 688.08 211.59 686.05 211.59L582.04 211.59C580.28 211.59 579.66 210.7 580.21 208.94L589.16 182.68C589.3 181.73 589.91 181.26 591 181.26L681.16 181.26L683.6 174.34Z" />
			<path id="&lt;Compound Path&gt;" fill-rule="evenodd" class="shp0" d="M859.66 109.21C861.7 109.21 863.63 109.75 865.46 110.83C867.3 111.92 868.79 113.31 869.94 115.01C871.1 116.7 871.84 118.67 872.18 120.91C872.52 123.15 872.28 125.35 871.47 127.52L848.67 194.29L848.88 194.29C848.2 196.59 846.98 198.76 845.21 200.8C843.45 202.83 841.45 204.66 839.21 206.29C836.97 207.92 834.66 209.21 832.29 210.16C829.91 211.11 827.71 211.59 825.67 211.59L735.1 211.59C732.79 211.59 730.76 211.08 728.99 210.06C727.23 209.04 725.77 207.65 724.62 205.89C723.46 204.12 722.72 202.15 722.38 199.98C722.04 197.81 722.21 195.57 722.89 193.27L746.09 126.51L745.89 126.51C746.57 124.34 747.79 122.2 749.55 120.09C751.32 117.99 753.28 116.13 755.45 114.5C757.62 112.87 759.9 111.58 762.27 110.63C764.65 109.68 766.85 109.21 768.89 109.21L859.66 109.21ZM835.24 139.53L773.57 139.53C770.99 146.86 768.61 153.82 766.44 160.39C764.27 166.98 761.9 173.93 759.32 181.26L820.99 181.26C823.57 173.93 825.94 166.98 828.12 160.39C830.29 153.82 832.66 146.86 835.24 139.53Z" />
			<path id="&lt;Path&gt;" class="shp0" d="M876.52 146.45L961.39 146.45L963.84 139.53L880.39 139.53C879.71 139.53 879.16 139.3 878.76 138.82C878.35 138.35 878.28 137.77 878.55 137.09L887.51 110.63C887.65 109.68 888.26 109.21 889.34 109.21L987.85 109.21C990.02 109.21 992.03 109.75 993.86 110.83C995.69 111.92 997.18 113.31 998.33 115.01C999.49 116.7 1000.24 118.67 1000.57 120.91C1000.91 123.15 1000.68 125.35 999.86 127.52L989.69 157.24L989.89 157.24C989.21 159.41 988.02 161.52 986.33 163.55C984.63 165.59 982.66 167.42 980.42 169.05C978.18 170.67 975.88 171.96 973.5 172.91C971.13 173.86 968.92 174.34 966.89 174.34L961.6 174.34C963.63 179.63 965.87 185.4 968.31 191.64C970.76 197.88 972.93 203.65 974.83 208.94C975.1 209.62 975.03 210.23 974.62 210.77C974.22 211.31 973.67 211.59 972.99 211.59L943.68 211.59C942.6 211.59 941.99 211.18 941.85 210.36L926.39 174.34L897.69 174.34C895.79 180.44 893.75 186.41 891.58 192.25C889.41 198.08 887.37 204.05 885.47 210.16C885.34 211.11 884.73 211.59 883.64 211.59L855.35 211.59C854.67 211.59 854.16 211.31 853.82 210.77C853.48 210.23 853.45 209.62 853.72 208.94L874.89 147.67C875.03 146.86 875.57 146.45 876.52 146.45Z" />
			<path id="&lt;Path&gt;" class="shp0" d="M1010.45 137.09L1019.6 110.63C1019.74 109.68 1020.28 109.21 1021.23 109.21L1138.27 109.21C1140.03 109.21 1140.64 110.09 1140.1 111.85L1131.14 138.11C1131.01 139.06 1130.4 139.53 1129.31 139.53L1086.37 139.53L1061.74 210.16C1061.6 211.11 1061.06 211.59 1060.11 211.59L1031.82 211.59C1031.14 211.59 1030.63 211.31 1030.29 210.77C1029.95 210.23 1029.92 209.62 1030.19 208.94L1054.21 139.53L1012.28 139.53C1010.78 139.53 1010.17 138.72 1010.45 137.09Z" />
			<path id="&lt;Path&gt;" class="shp0" d="M1181.38 111.85L1147.59 210.16C1147.46 211.11 1146.84 211.59 1145.76 211.59L1117.26 211.59C1116.58 211.59 1116.08 211.31 1115.74 210.77C1115.4 210.23 1115.36 209.62 1115.63 208.94L1149.42 110.63C1149.56 109.68 1150.17 109.21 1151.25 109.21L1179.55 109.21C1181.31 109.21 1181.92 110.09 1181.38 111.85Z" />
			<path id="&lt;Path&gt;" class="shp0" d="M1212.72 109.21L1210.69 109.21C1208.38 109.21 1206.04 109.61 1203.66 110.43C1201.29 111.24 1199.08 112.33 1197.05 113.68C1195.01 115.04 1193.28 116.5 1191.86 118.06C1190.43 119.62 1189.45 121.22 1188.91 122.84L1158.99 208.94C1158.44 210.7 1159.06 211.59 1160.82 211.59L1188.91 211.59C1189.99 211.59 1190.6 211.11 1190.74 210.16L1210.69 152.15C1218.29 162.19 1224.97 170.84 1230.73 178.1C1236.5 185.36 1241.49 191.4 1245.69 196.22C1249.9 201.04 1253.43 204.66 1256.28 207.11C1259.13 209.55 1261.37 210.97 1263 211.38C1263.27 211.65 1263.5 211.76 1263.71 211.69C1263.91 211.62 1264.28 211.59 1264.83 211.59L1266.86 211.59C1269.17 211.59 1271.54 211.18 1273.99 210.36C1276.43 209.55 1278.67 208.5 1280.7 207.21C1282.74 205.92 1284.5 204.46 1285.99 202.83C1287.49 201.2 1288.5 199.58 1289.05 197.95L1288.85 197.95L1331.98 70.2C1332.21 69.51 1332.22 68.91 1331.88 68.37C1331.54 67.83 1331.03 67.55 1330.35 67.55L1302.06 67.55C1300.98 67.55 1300.53 68.07 1300.23 68.98L1266.66 168.44C1259.2 158.12 1252.65 149.37 1247.02 142.18C1241.39 134.99 1236.47 129.05 1232.26 124.37C1228.06 119.69 1224.53 116.19 1221.68 113.89C1218.83 111.58 1216.45 110.16 1214.55 109.61C1214.01 109.34 1213.4 109.21 1212.72 109.21Z" />
			<path id="&lt;Path&gt;" class="shp0" d="M1404.25 174.34L1359.88 174.34C1359.2 174.34 1358.66 174.1 1358.25 173.63C1357.84 173.15 1357.78 172.57 1358.05 171.9L1366.39 147.67C1366.53 146.86 1367.14 146.45 1368.22 146.45L1427.66 146.45C1429.83 146.45 1431.83 147 1433.66 148.08C1435.49 149.17 1436.95 150.56 1438.04 152.25C1439.12 153.95 1439.83 155.92 1440.17 158.16C1440.51 160.39 1440.34 162.6 1439.66 164.77L1429.49 194.29L1429.69 194.29C1429.01 196.59 1427.79 198.76 1426.03 200.8C1424.26 202.83 1422.3 204.66 1420.12 206.29C1417.95 207.92 1415.68 209.21 1413.31 210.16C1410.93 211.11 1408.73 211.59 1406.69 211.59L1316.32 211.59C1314.15 211.59 1312.15 211.04 1310.32 209.96C1308.48 208.87 1306.99 207.48 1305.84 205.78C1304.69 204.09 1303.94 202.15 1303.6 199.98C1303.26 197.81 1303.5 195.57 1304.31 193.27L1327.31 126.51L1327.11 126.51C1327.79 124.34 1329.01 122.2 1330.77 120.09C1332.54 117.99 1334.54 116.13 1336.78 114.5C1339.01 112.87 1341.32 111.58 1343.7 110.63C1346.07 109.68 1348.28 109.21 1350.31 109.21L1456.15 109.21C1457.51 109.21 1458.12 110.09 1457.98 111.85L1448.82 138.11C1448.69 139.06 1448.15 139.53 1447.2 139.53L1354.99 139.53C1352.42 146.86 1350.01 153.82 1347.77 160.39C1345.53 166.98 1343.12 173.93 1340.54 181.26L1401.6 181.26L1404.25 174.34Z" />
			<path id="&lt;Path&gt;" class="shp0" d="M1313.54 67.55L1469.62 67.55C1470.98 67.55 1472.03 68.53 1471.45 70.2L1462.3 96.46C1462.16 97.39 1461.63 97.87 1460.71 97.88L1460.67 97.88L1304.57 97.88C1305.49 97.87 1305.84 97.35 1306.15 96.46L1315.31 70.2C1315.88 68.56 1314.85 67.58 1313.54 67.55Z" />
		</g>
		<g id="&lt;Group&gt;">
			<g id="&lt;Group&gt;">
				<path id="&lt;Path&gt;" class="shp1" d="M602.01 273.83L641.23 226.43C641.33 226.03 641.74 225.83 642.44 225.83L668.04 225.83C668.74 225.83 669.25 226.08 669.55 226.58C669.85 227.09 669.75 227.59 669.25 228.1L617.91 290.94C611.75 298.31 605.29 302 598.53 302L591.11 302C587.47 302 584.65 300.94 582.63 298.82C580.61 296.7 579.3 293.87 578.69 290.34L570.36 227.49C570.16 226.38 570.66 225.83 571.88 225.83L593.68 225.83C594.49 225.83 594.99 226.28 595.2 227.19L602.01 273.83Z" />
				<path id="&lt;Path&gt;" class="shp1" d="M699.82 227.79L674.69 300.94C674.59 301.64 674.13 302 673.32 302L652.12 302C651.62 302 651.24 301.8 650.99 301.39C650.73 300.99 650.71 300.53 650.91 300.03L676.05 226.89C676.15 226.18 676.6 225.83 677.41 225.83L698.46 225.83C699.77 225.83 700.23 226.48 699.82 227.79Z" />
				<path id="&lt;Path&gt;" class="shp1" d="M759.63 274.29L705.11 274.29C703.5 274.29 702.01 273.88 700.64 273.07C699.28 272.27 698.17 271.23 697.31 269.97C696.45 268.71 695.9 267.27 695.65 265.65C695.4 264.04 695.57 262.37 696.18 260.66L703.9 238.7L703.75 238.7C704.26 237.08 705.16 235.49 706.48 233.93C707.79 232.36 709.25 230.97 710.87 229.76C712.48 228.55 714.17 227.59 715.94 226.89C717.71 226.18 719.35 225.83 720.86 225.83L798.25 225.83C799.25 225.83 799.71 226.48 799.61 227.79L792.79 247.33C792.69 248.04 792.29 248.39 791.58 248.39L724.5 248.39L722.68 253.54L777.04 253.54C778.66 253.54 780.15 253.94 781.51 254.75C782.87 255.56 783.99 256.59 784.84 257.85C785.7 259.12 786.26 260.58 786.51 262.25C786.76 263.91 786.59 265.55 785.98 267.17L778.41 289.13L778.56 289.13C778.05 290.84 777.14 292.46 775.83 293.97C774.52 295.49 773.06 296.85 771.44 298.06C769.83 299.27 768.14 300.23 766.37 300.94C764.6 301.64 762.96 302 761.45 302L684.06 302C682.75 302 682.3 301.34 682.7 300.03L689.36 280.49C689.46 279.79 689.92 279.43 690.73 279.43L757.81 279.43L759.63 274.29Z" />
				<path id="&lt;Path&gt;" class="shp1" d="M815.34 279.43L860.93 279.43L879.25 226.89C879.35 226.18 879.75 225.83 880.46 225.83L901.51 225.83C902.52 225.83 902.97 226.48 902.87 227.79L881.67 289.13L881.83 289.13C881.32 290.84 880.41 292.46 879.1 293.97C877.79 295.49 876.32 296.85 874.71 298.06C873.09 299.27 871.4 300.23 869.63 300.94C867.87 301.64 866.23 302 864.71 302L797.47 302C795.86 302 794.37 301.59 793.01 300.79C791.65 299.98 790.53 298.94 789.68 297.68C788.82 296.42 788.26 294.98 788.01 293.37C787.76 291.75 787.94 290.09 788.54 288.37L809.74 226.89C809.84 226.18 810.3 225.83 811.1 225.83L832 225.83C833.32 225.83 833.77 226.48 833.36 227.79L815.34 279.43Z" />
				<path id="&lt;Compound Path&gt;" fill-rule="evenodd" class="shp1" d="M920.43 289.73L910.58 301.39C910.48 301.8 910.13 302 909.52 302L884.69 302C883.98 302 883.5 301.75 883.25 301.24C883 300.73 883.07 300.23 883.48 299.73L935.12 236.88C941.17 229.51 947.79 225.83 954.95 225.83L964.04 225.83C967.88 225.83 970.6 226.81 972.22 228.78C973.83 230.75 974.89 233.7 975.4 237.64L983.88 300.33C984.08 301.44 983.58 302 982.36 302L960.71 302C959.9 302 959.45 301.54 959.35 300.64L957.53 289.73L920.43 289.73ZM955.11 269.44L952.38 252.33C949.76 255.36 947.36 258.13 945.19 260.66C943.02 263.18 940.47 266.11 937.54 269.44L955.11 269.44Z" />
				<path id="&lt;Path&gt;" class="shp1" d="M1037.32 225.83L1016.42 225.83C1015.62 225.83 1015.16 226.18 1015.06 226.89L993.86 288.37C993.25 290.09 993.08 291.75 993.33 293.37C993.58 294.98 994.14 296.42 994.99 297.68C995.85 298.94 996.96 299.98 998.33 300.79C999.69 301.59 1001.18 302 1002.79 302L1072.76 302C1073.56 302 1074.02 301.64 1074.12 300.94L1080.78 281.25C1080.98 280.75 1080.93 280.32 1080.63 279.96C1080.33 279.61 1079.92 279.43 1079.42 279.43L1020.81 279.43L1038.68 227.79C1039.09 226.48 1038.63 225.83 1037.32 225.83Z" />
				<path id="&lt;Path&gt;" class="shp1" d="M1132.41 227.79L1107.27 300.94C1107.17 301.64 1106.72 302 1105.91 302L1084.71 302C1084.2 302 1083.83 301.8 1083.57 301.39C1083.32 300.99 1083.3 300.53 1083.5 300.03L1108.63 226.89C1108.74 226.18 1109.19 225.83 1110 225.83L1131.05 225.83C1132.36 225.83 1132.81 226.48 1132.41 227.79Z" />
				<path id="&lt;Path&gt;" class="shp1" d="M1166.62 279.43L1205.84 279.43C1206.35 279.43 1206.75 279.61 1207.05 279.96C1207.36 280.32 1207.41 280.75 1207.21 281.25L1200.39 300.94C1200.29 301.64 1199.89 302 1199.18 302L1116.5 302C1115.99 302 1115.59 301.8 1115.29 301.39C1114.98 300.99 1114.93 300.53 1115.13 300.03L1117.56 293.06C1118.06 291.75 1118.97 290.16 1120.28 288.29C1121.6 286.43 1123.11 284.94 1124.83 283.83L1124.67 283.98L1174.35 248.39L1135.12 248.39C1134.62 248.39 1134.22 248.21 1133.91 247.86C1133.61 247.51 1133.56 247.08 1133.76 246.57L1140.42 226.89C1140.52 226.18 1140.98 225.83 1141.79 225.83L1224.32 225.83C1225.63 225.83 1226.09 226.48 1225.68 227.79L1223.41 234.31C1222.9 235.92 1221.92 237.76 1220.46 239.83C1218.99 241.9 1217.3 243.44 1215.38 244.45L1215.38 244.3L1166.62 279.43Z" />
				<path id="&lt;Path&gt;" class="shp1" d="M1223.4 302C1221.68 302 1220.17 301.59 1218.85 300.79C1217.54 299.98 1216.46 298.94 1215.6 297.68C1214.74 296.42 1214.18 294.98 1213.93 293.37C1213.68 291.75 1213.81 290.09 1214.31 288.37L1231.42 238.7L1231.27 238.7C1231.78 237.08 1232.69 235.49 1234 233.93C1235.31 232.36 1236.8 230.97 1238.46 229.76C1240.13 228.55 1241.85 227.59 1243.61 226.89C1245.38 226.18 1247.02 225.83 1248.54 225.83L1318.95 225.83C1320.26 225.83 1320.72 226.48 1320.31 227.79L1313.65 247.33C1313.55 248.04 1313.1 248.39 1312.29 248.39L1252.17 248.39L1250.35 253.54L1309.41 253.54C1309.92 253.54 1310.32 253.72 1310.62 254.07C1310.93 254.42 1310.98 254.85 1310.78 255.36L1304.41 273.38C1304.21 273.98 1303.81 274.29 1303.2 274.29L1243.08 274.29L1241.27 279.43L1300.48 279.43C1300.98 279.43 1301.39 279.61 1301.69 279.96C1301.99 280.32 1302.04 280.75 1301.84 281.25L1295.18 300.94C1295.07 301.64 1294.62 302 1293.81 302L1223.4 302Z" />
				<path id="&lt;Path&gt;" class="shp1" d="M1321.97 252.93L1385.72 252.93L1387.54 247.78L1324.69 247.78C1324.19 247.78 1323.78 247.61 1323.48 247.25C1323.18 246.9 1323.13 246.47 1323.33 245.97L1330.14 225.98C1330.25 225.37 1330.7 225.07 1331.51 225.07L1405.71 225.07C1407.33 225.07 1408.82 225.47 1410.18 226.28C1411.54 227.09 1412.65 228.12 1413.51 229.39C1414.37 230.65 1414.92 232.11 1415.18 233.78C1415.43 235.44 1415.25 237.13 1414.65 238.85L1407.07 261.11L1407.23 261.11C1406.72 262.83 1405.81 264.44 1404.5 265.96C1403.19 267.47 1401.7 268.83 1400.03 270.05C1398.37 271.26 1396.63 272.22 1394.81 272.92C1392.99 273.63 1391.33 273.98 1389.81 273.98L1385.87 273.98C1392.78 292.53 1406.06 324.92 1412.89 343.49C1413.36 344.78 1412.84 345.46 1411.53 345.46L1389.57 345.46C1388.86 345.46 1388.41 345.21 1388.21 344.7L1359.37 273.98L1337.87 273.98C1336.35 278.53 1334.79 283.02 1333.17 287.46C1331.56 291.9 1330 296.4 1328.48 300.94C1328.38 301.64 1327.97 302 1327.27 302L1306.07 302C1304.75 302 1304.3 301.34 1304.7 300.03L1320.6 253.99C1320.71 253.29 1321.16 252.93 1321.97 252.93Z" />
			</g>
			<path id="&lt;Path&gt;" class="shp1" d="M1280.56 97.88L617.48 97.88C616.12 97.88 615.06 96.91 615.65 95.24L624.81 68.98C625.12 68.09 625.47 67.57 626.39 67.55L626.43 67.55L1290.8 67.55L1280.56 97.88Z" />
			<path id="&lt;Path&gt;" class="shp1" d="M524.28 145.67L477.82 145.67L415.52 345.46L461.97 345.46L524.28 145.67Z" />
			<path id="&lt;Path&gt;" class="shp1" d="M424.1 87.3L377.64 87.3L297.13 345.46L343.59 345.46L424.1 87.3Z" />
		</g>
		<g id="&lt;Group&gt;">
			<path id="&lt;Path&gt;" class="shp0" d="M608.25 71.29L561.79 71.29L474.71 345.46L521.17 345.46L608.25 71.29Z" />
			<path id="&lt;Path&gt;" class="shp0" d="M510.34 0.54L463.88 0.54L356.32 345.46L402.78 345.46L510.34 0.54Z" />
			<path id="&lt;Path&gt;" class="shp0" d="M311.5 71.29L265.04 71.29L177.96 345.46L224.42 345.46L311.5 71.29Z" />
			<path id="&lt;Path&gt;" class="shp0" d="M227.53 145.67L181.07 145.67L118.77 345.46L165.23 345.46L227.53 145.67Z" />
			<path id="&lt;Path&gt;" class="shp0" d="M213.6 0.54L167.14 0.54L59.57 345.46L106.03 345.46L213.6 0.54Z" />
			<path id="&lt;Path&gt;" class="shp0" d="M127.35 87.3L80.89 87.3L0.38 345.46L46.84 345.46L127.35 87.3Z" />
			<path id="&lt;Path&gt;" class="shp0" d="M320.84 228.6L274.38 228.6L237.94 345.46L284.4 345.46L320.84 228.6Z" />
		</g>
	</g>
</svg>